External Loads File
version=1
nRows=85
nColumns=13
Range=5.000000e-03-10 seconds
endheader
time 	forceRightX 	forceRightY 	forceRightZ 	pointRightX 	pointRightY 	pointRightZ 	forceLeftX 	forceLeftY 	forceLeftZ 	pointLeftX 	pointLeftY 	pointLeftZ 		
7.505000 -32.459755 -87.699179 -0.000000 0.196936 0.456343 -0.100415 149.979483 1094.183966 -0.000000 0.326639 0.167515 -0.337348
7.510000 -46.967068 -90.078889 -0.000000 0.206273 0.461888 -0.100844 176.300566 1098.742370 -0.000000 0.318544 0.161607 -0.337102
7.515000 -60.757545 -91.612989 -0.000000 0.216879 0.467039 -0.100201 205.268463 1095.835583 -0.000000 0.310268 0.156272 -0.336985
7.520000 -72.908437 -92.535911 -0.000000 0.226385 0.471623 -0.101140 228.276000 1086.556838 -0.000000 0.301844 0.151513 -0.336888
7.525000 -83.615937 -92.295192 -0.000000 0.236447 0.475470 -0.101501 250.270984 1069.713378 -0.000000 0.293288 0.147310 -0.336843
7.530000 -92.544534 -90.588810 -0.000000 0.246660 0.478869 -0.101860 269.786835 1045.261268 -0.000000 0.284593 0.143933 -0.336809
7.535000 -99.550940 -86.929953 -0.000000 0.256918 0.481543 -0.102030 287.272173 1012.545385 -0.000000 0.275413 0.140933 -0.335768
7.540000 -104.176580 -81.250067 -0.000000 0.267050 0.483608 -0.102401 298.893253 971.975847 -0.000000 0.266641 0.138248 -0.335570
7.545000 -106.485730 -73.034744 -0.000000 0.277295 0.485025 -0.102657 305.893152 922.708816 -0.000000 0.257847 0.136162 -0.335463
7.550000 -106.380600 -62.172725 -0.000000 0.287267 0.485724 -0.102998 306.256887 865.263971 -0.000000 0.249158 0.134602 -0.335432
7.555000 -104.065014 -48.376079 -0.000000 0.297299 0.485767 -0.103197 300.499039 799.872933 -0.000000 0.240546 0.133601 -0.335405
7.560000 -99.717345 -31.643140 -0.000000 0.307273 0.485101 -0.103315 287.978574 727.823427 -0.000000 0.232068 0.133022 -0.335429
7.565000 -93.598738 -12.035399 -0.000000 0.317100 0.483727 -0.103313 269.270968 650.787753 -0.000000 0.223540 0.133128 -0.335557
7.570000 -85.938746 10.006131 -0.000000 0.326632 0.481973 -0.103370 244.615707 571.509842 -0.000000 0.215070 0.133929 -0.335755
7.575000 -77.068256 33.757945 -0.000000 0.335585 0.479455 -0.103388 215.209227 493.216208 -0.000000 0.206809 0.135384 -0.335904
7.580000 -67.374153 58.430389 -0.000000 0.344175 0.476522 -0.103312 184.121274 418.692636 -0.000000 0.198378 0.137839 -0.336075
7.585000 -57.388623 82.980435 -0.000000 0.352329 0.472950 -0.103141 153.604751 350.491142 -0.000000 0.189816 0.141112 -0.336169
7.590000 -47.769495 106.556175 -0.000000 0.359928 0.468962 -0.102927 125.763729 289.842213 -0.000000 0.181207 0.145465 -0.336128
7.595000 -39.059531 128.817435 -0.000000 0.367059 0.464145 -0.102639 102.463864 236.633353 -0.000000 0.172574 0.150726 -0.336054
7.600000 -31.688198 149.973189 -0.000000 0.373810 0.458551 -0.102110 84.633991 190.070119 -0.000000 0.164041 0.156993 -0.335799
7.605000 -26.176890 170.687685 -0.000000 0.379888 0.452515 -0.101768 72.165568 149.070447 -0.000000 0.155829 0.164211 -0.335812
7.610000 -22.385418 192.003358 -0.000000 0.385303 0.445456 -0.101371 64.859200 112.224547 -0.000000 0.147850 0.172344 -0.335839
7.615000 -20.359435 214.946059 -0.000000 0.390193 0.437988 -0.101132 61.642954 78.622168 -0.000000 0.140273 0.181235 -0.335771
7.620000 -19.881446 240.472255 -0.000000 0.394466 0.430012 -0.100973 61.423335 47.934832 -0.000000 0.133136 0.190548 -0.335625
7.625000 -20.692839 269.353986 -0.000000 0.398086 0.421690 -0.100770 63.177396 20.570541 -0.000000 0.126563 0.200136 -0.335518
7.630000 -22.516042 302.088453 -0.000000 0.401190 0.413074 -0.100552 66.051283 -2.626347 -0.000000 0.120660 0.209771 -0.334981
7.635000 -25.131626 338.773194 -0.000000 0.403544 0.403766 -0.100152 69.334337 -20.790409 -0.000000 0.115670 0.219283 -0.334986
7.640000 -28.008091 379.007460 -0.000000 0.405721 0.393904 -0.099990 72.447972 -33.437705 -0.000000 0.111454 0.228753 -0.335069
7.645000 -31.423731 421.749288 -0.000000 0.407418 0.383740 -0.100049 75.094281 -40.489764 -0.000000 0.107959 0.238181 -0.335163
7.650000 -35.713312 465.486023 -0.000000 0.408743 0.373489 -0.100057 77.226265 -42.612645 -0.000000 0.105221 0.247462 -0.335126
7.655000 -39.999507 508.621411 -0.000000 0.409612 0.362861 -0.099838 78.822910 -41.336056 -0.000000 0.103139 0.256931 -0.335098
7.660000 -43.790250 549.705982 -0.000000 0.410152 0.351970 -0.099406 79.948631 -38.411834 -0.000000 0.101723 0.266779 -0.335148
7.665000 -47.135885 587.685088 -0.000000 0.410427 0.340868 -0.099062 80.649024 -35.393072 -0.000000 0.100920 0.276767 -0.335293
7.670000 -49.889433 622.022447 -0.000000 0.410212 0.329811 -0.098925 80.844943 -33.413444 -0.000000 0.100811 0.287065 -0.335522
7.675000 -52.423290 652.546767 -0.000000 0.409750 0.319028 -0.097974 80.411436 -32.916013 -0.000000 0.101372 0.297409 -0.335775
7.680000 -54.465068 679.453088 -0.000000 0.408174 0.308335 -0.099250 79.193132 -33.849715 -0.000000 0.102562 0.307539 -0.335987
7.685000 -54.836155 703.281443 -0.000000 0.406357 0.297611 -0.099558 77.090571 -35.897997 -0.000000 0.104399 0.317560 -0.336205
7.690000 -52.817486 724.720854 -0.000000 0.403871 0.286856 -0.099124 74.193072 -38.582243 -0.000000 0.106856 0.327521 -0.336191
7.695000 -48.755596 744.434197 -0.000000 0.401053 0.276189 -0.098983 70.801308 -41.441669 -0.000000 0.109915 0.337245 -0.336239
7.700000 -41.183220 763.132814 -0.000000 0.397688 0.265644 -0.098745 67.162059 -44.424841 -0.000000 0.113649 0.347167 -0.336275
7.705000 -32.069357 781.150894 -0.000000 0.393827 0.255291 -0.098509 63.609830 -47.363772 -0.000000 0.117913 0.356477 -0.336280
7.710000 -19.395511 798.818287 -0.000000 0.389475 0.245280 -0.098344 60.046792 -50.532864 -0.000000 0.122804 0.366026 -0.336437
7.715000 -4.370278 816.129159 -0.000000 0.384612 0.235680 -0.098062 56.417216 -53.903525 -0.000000 0.128212 0.375404 -0.336600
7.720000 13.260535 833.033689 -0.000000 0.379241 0.226437 -0.097967 52.560379 -57.457484 -0.000000 0.134157 0.384684 -0.336711
7.725000 32.172502 849.485664 -0.000000 0.373437 0.217704 -0.097997 48.467934 -60.961024 -0.000000 0.140514 0.393684 -0.336914
7.730000 53.160289 865.443987 -0.000000 0.367233 0.209147 -0.097954 44.006438 -64.229315 -0.000000 0.147371 0.402512 -0.337099
7.735000 74.721131 880.953424 -0.000000 0.360650 0.201168 -0.097985 39.220095 -66.864694 -0.000000 0.154688 0.411071 -0.337250
7.740000 96.561710 895.921742 -0.000000 0.353767 0.193477 -0.098043 34.091853 -68.455463 -0.000000 0.162445 0.419128 -0.337414
7.745000 118.320527 910.103156 -0.000000 0.346516 0.186286 -0.097891 28.647470 -68.499462 -0.000000 0.170536 0.426837 -0.337555
7.750000 140.320456 923.007908 -0.000000 0.338921 0.179619 -0.097858 22.940893 -66.414990 -0.000000 0.179096 0.434282 -0.337659
7.755000 160.996597 934.279156 -0.000000 0.331130 0.173492 -0.097676 17.270161 -61.490612 -0.000000 0.187881 0.441114 -0.337645
7.760000 180.679080 943.136012 -0.000000 0.323164 0.167982 -0.097600 11.888315 -53.098656 -0.000000 0.196974 0.447421 -0.337579
7.765000 199.377203 948.611338 -0.000000 0.314977 0.162997 -0.097429 7.170460 -40.779740 -0.000000 0.206215 0.453261 -0.337458
7.770000 216.872156 949.566991 -0.000000 0.306655 0.158564 -0.097272 3.567358 -24.365972 -0.000000 0.215698 0.458384 -0.337333
7.775000 233.615618 944.577231 -0.000000 0.298187 0.154650 -0.097154 1.495211 -4.016866 -0.000000 0.225534 0.462904 -0.337433
7.780000 248.345217 932.601531 -0.000000 0.289631 0.151198 -0.097015 1.293682 19.759252 -0.000000 0.235434 0.466718 -0.337290
7.785000 259.752666 912.787305 -0.000000 0.281050 0.148438 -0.096778 3.051348 46.029960 -0.000000 0.245154 0.469873 -0.337152
7.790000 267.680252 884.312331 -0.000000 0.272504 0.146106 -0.096599 6.613468 73.453671 -0.000000 0.254799 0.472515 -0.337085
7.795000 271.369507 847.083916 -0.000000 0.264025 0.144433 -0.096425 11.494191 100.471898 -0.000000 0.264314 0.474900 -0.337137
7.800000 271.461045 801.291256 -0.000000 0.255531 0.143246 -0.096135 17.113160 125.615730 -0.000000 0.274035 0.476828 -0.337172
7.805000 265.526353 748.942616 -0.000000 0.247067 0.142816 -0.095782 22.332603 147.940000 -0.000000 0.283011 0.478439 -0.337274
7.810000 256.069516 691.090525 -0.000000 0.238550 0.143226 -0.095554 26.884742 167.033576 -0.000000 0.292024 0.479214 -0.337407
7.815000 243.222438 630.033281 -0.000000 0.229885 0.144248 -0.095536 30.350329 183.058852 -0.000000 0.300779 0.479186 -0.337543
7.820000 229.138576 567.334724 -0.000000 0.220254 0.146071 -0.096426 33.000445 196.379681 -0.000000 0.309226 0.478636 -0.337814
7.825000 212.224967 505.547813 -0.000000 0.211362 0.148655 -0.096405 33.931864 207.701641 -0.000000 0.317363 0.477440 -0.337868
7.830000 194.939484 444.685828 -0.000000 0.202435 0.151925 -0.096452 33.595611 217.593667 -0.000000 0.325085 0.475579 -0.337992
7.835000 178.314217 384.284906 -0.000000 0.193467 0.155941 -0.096538 32.221943 226.737567 -0.000000 0.332463 0.472995 -0.338096
7.840000 162.462664 323.566308 -0.000000 0.184718 0.160792 -0.096559 29.783328 235.902237 -0.000000 0.339397 0.469640 -0.338253
7.845000 147.362068 261.588919 -0.000000 0.176176 0.166396 -0.096555 26.356590 245.830668 -0.000000 0.345863 0.465587 -0.338419
7.850000 132.802705 197.726184 -0.000000 0.167915 0.172805 -0.096550 22.150672 257.143557 -0.000000 0.352021 0.460725 -0.338968
7.855000 118.102518 132.220351 -0.000000 0.159925 0.179883 -0.096622 16.969764 270.294700 -0.000000 0.357731 0.455261 -0.339356
7.860000 102.780687 65.993376 -0.000000 0.152413 0.187630 -0.096588 10.658138 285.510106 -0.000000 0.362942 0.449028 -0.339601
7.865000 86.432651 0.646871 -0.000000 0.145293 0.195936 -0.096563 3.291875 302.876154 -0.000000 0.367820 0.442084 -0.340008
7.870000 68.614977 -61.502971 -0.000000 0.138561 0.204856 -0.096698 -4.965788 322.431673 -0.000000 0.372365 0.434472 -0.340463
7.875000 49.187181 -117.586574 -0.000000 0.132215 0.213897 -0.097079 -14.196990 344.151527 -0.000000 0.376699 0.426381 -0.340624
7.880000 28.669057 -164.634651 -0.000000 0.126885 0.222859 -0.097622 -24.545908 367.878302 -0.000000 0.380963 0.417768 -0.340800
7.885000 8.211262 -200.045858 -0.000000 0.122221 0.231697 -0.097929 -35.905997 393.291645 -0.000000 0.384525 0.408743 -0.341055
7.890000 -10.918314 -222.065809 -0.000000 0.118392 0.240613 -0.098017 -47.273690 419.986554 -0.000000 0.387644 0.399231 -0.341345
7.895000 -27.013775 -230.234740 -0.000000 0.115100 0.249455 -0.097903 -58.069367 447.443679 -0.000000 0.390311 0.389417 -0.341505
7.900000 -38.913101 -225.607810 -0.000000 0.112351 0.258478 -0.097767 -66.949925 475.257326 -0.000000 0.392491 0.379029 -0.341267
7.905000 -45.093284 -210.693676 -0.000000 0.110101 0.267640 -0.097830 -74.368344 502.882324 -0.000000 0.394292 0.368805 -0.340949
7.910000 -45.606859 -188.630332 -0.000000 0.108337 0.277166 -0.097944 -79.067747 530.176426 -0.000000 0.395741 0.358315 -0.340725
7.915000 -40.826346 -162.737444 -0.000000 0.107185 0.287119 -0.097978 -80.542265 557.057319 -0.000000 0.396674 0.347365 -0.340462
7.920000 -31.409187 -136.020298 -0.000000 0.106564 0.297366 -0.098021 -79.322524 583.388735 -0.000000 0.397303 0.336214 -0.340327
7.925000 -18.471138 -110.729703 -0.000000 0.106531 0.307910 -0.098095 -76.256418 609.067906 -0.000000 0.397523 0.325177 -0.340480
